# xmcd CD database file
#
# Track frame offsets:
#	150
#	21552
#	66354
#	109068
#	144810
#	186362
#	224249
#	248514
#	275701
#	304670
#
# Disc length: 4368 seconds
#
# Revision: 0
# Processed by: cddbd v1.5.2PL0 Copyright (c) Steve Scherf et al.
# Submitted via: CDex 1.70beta2
#
DISCID=9c110e0a
DTITLE=Gila Antara - Moondance - there is no rush
DYEAR=1995
DGENRE=New Age
TTITLE0=Return
TTITLE1=Spirit of the Wind
TTITLE2=Let the New in
TTITLE3=Aja - Morning Call
TTITLE4=Fill me
TTITLE5=There is no Rush
TTITLE6=Moondance
TTITLE7=All Winds blow
TTITLE8=Let me be close
TTITLE9=Into the Silence
EXTD=YEAR: 1995
EXTT0=
EXTT1=
EXTT2=
EXTT3=
EXTT4=
EXTT5=
EXTT6=
EXTT7=
EXTT8=
EXTT9=
PLAYORDER=
